<?xml version="1.0" encoding="UTF-8"?>
<svg version="1.1" xmlns="http://www.w3.org/2000/svg" width="400" height="170">
<path d="M0 0 C-0.48799236 5.93724041 -1.31471625 11.25525204 -3 17 C-3.6072139 17.00586624 -4.2144278 17.01173248 -4.84004211 17.01777649 C-11.15042575 17.08162728 -17.46029545 17.16602503 -23.77026367 17.26245117 C-26.12631461 17.2957402 -28.48244606 17.32375961 -30.83862305 17.34643555 C-34.22219207 17.37990803 -37.60502054 17.43222092 -40.98828125 17.48828125 C-42.57277824 17.49786613 -42.57277824 17.49786613 -44.18928528 17.50764465 C-45.66047066 17.53733589 -45.66047066 17.53733589 -47.16137695 17.56762695 C-48.45710381 17.58428154 -48.45710381 17.58428154 -49.77900696 17.60127258 C-52.47182255 18.08470472 -53.34309957 18.8630524 -55 21 C-55.85802297 23.20081506 -55.85802297 23.20081506 -56.38671875 25.66796875 C-56.7105957 27.00698242 -56.7105957 27.00698242 -57.04101562 28.37304688 C-57.25435547 29.30181641 -57.46769531 30.23058594 -57.6875 31.1875 C-57.91244141 32.12787109 -58.13738281 33.06824219 -58.36914062 34.03710938 C-58.92237337 36.35597853 -59.46557052 38.67673831 -60 41 C-58.92105469 40.9371582 -57.84210938 40.87431641 -56.73046875 40.80957031 C-52.69866035 40.59114662 -48.66736237 40.45421275 -44.63134766 40.34082031 C-42.89054269 40.28073686 -41.15033693 40.19902983 -39.41162109 40.09472656 C-27.83403537 39.41798516 -27.83403537 39.41798516 -23 41 C-19.07934267 44.49059868 -17.04514866 48.21391433 -15 53 C-14.01 54.98 -14.01 54.98 -13 57 C-29.83 57 -46.66 57 -64 57 C-64.66 61.95 -65.32 66.9 -66 72 C-66.7561768 75.98802156 -67.54208655 79.92187435 -68.4375 83.875 C-68.74397461 85.33486328 -68.74397461 85.33486328 -69.05664062 86.82421875 C-69.26353516 87.74589844 -69.47042969 88.66757813 -69.68359375 89.6171875 C-69.86462646 90.43815918 -70.04565918 91.25913086 -70.23217773 92.10498047 C-70.48555908 92.73033691 -70.73894043 93.35569336 -71 94 C-74.61867559 95.2062252 -77.92506251 95.10816918 -81.6875 95.0625 C-82.38939453 95.05798828 -83.09128906 95.05347656 -83.81445312 95.04882812 C-85.54300538 95.03706927 -87.27151365 95.01913454 -89 95 C-90.54944004 91.90111992 -89.39796246 89.60212601 -88.62890625 86.265625 C-88.47170609 85.57221008 -88.31450592 84.87879517 -88.15254211 84.16436768 C-87.62876621 81.85810643 -87.09578609 79.55407922 -86.5625 77.25 C-85.81218833 73.97491086 -85.06699422 70.69868105 -84.32421875 67.421875 C-84.13148376 66.57326904 -83.93874878 65.72466309 -83.74017334 64.8503418 C-82.37143243 58.77585055 -81.10810062 52.68534236 -79.89453125 46.578125 C-79.55211457 44.87465184 -79.20958649 43.17120106 -78.86694336 41.46777344 C-78.37348116 39.01150005 -77.88546415 36.55485972 -77.41604614 34.09387207 C-72.79537402 9.90294348 -72.79537402 9.90294348 -63 3 C-59.99353581 1.24035465 -57.78715565 0.73823266 -54.31420898 0.68115234 C-53.38901962 0.66128265 -52.46383026 0.64141296 -51.51060486 0.62094116 C-50.01842186 0.60361435 -50.01842186 0.60361435 -48.49609375 0.5859375 C-47.46243179 0.56657135 -46.42876984 0.5472052 -45.36378479 0.5272522 C-42.0551073 0.46752355 -38.7463912 0.42120079 -35.4375 0.375 C-33.23631308 0.33679451 -31.03514071 0.29774129 -28.83398438 0.2578125 C-19.22171815 0.09062852 -9.61388672 -0.0250314 0 0 Z " fill="#5B88A2" transform="translate(328,31)"/>
<path d="M0 0 C16.80495922 -2.3849833 16.80495922 -2.3849833 21.86425781 1.39160156 C24.9574577 4.92919312 27.04272875 8.95963175 29.0546875 13.18115234 C30.37955819 15.73029663 32.12099215 17.83997982 34 20 C35.68870774 18.16776737 37.37597178 16.33423723 39.0625 14.5 C39.52849609 13.9946875 39.99449219 13.489375 40.47460938 12.96875 C40.94833984 12.453125 41.42207031 11.9375 41.91015625 11.40625 C42.66631226 10.6028418 42.66631226 10.6028418 43.43774414 9.78320312 C45.06514823 7.99222261 45.06514823 7.99222261 46.51342773 5.82617188 C48.93884615 2.51340525 50.61034271 0.32541736 54.71069336 -0.63476562 C57.82419407 -0.78658199 60.8272341 -0.70078687 63.9375 -0.5 C65.53561523 -0.44585937 65.53561523 -0.44585937 67.16601562 -0.390625 C69.78111316 -0.29680984 72.38863981 -0.16573994 75 0 C73.2486198 3.74629405 70.96244364 6.17578566 68 9 C66.59248713 10.39063787 65.18780161 11.78414024 63.78515625 13.1796875 C63.01623047 13.94410156 62.24730469 14.70851563 61.45507812 15.49609375 C60.66552734 16.28113281 59.87597656 17.06617187 59.0625 17.875 C58.27681641 18.65230469 57.49113281 19.42960937 56.68164062 20.23046875 C52.23178848 24.66170227 48.01304907 29.16888153 44 34 C45.52444501 38.58199664 48.11641262 42.13124403 51 45.9375 C51.98649395 47.25980764 52.97215011 48.58274067 53.95703125 49.90625 C54.45928223 50.57914063 54.9615332 51.25203125 55.47900391 51.9453125 C57.92291595 55.24675131 60.30676618 58.59035112 62.6875 61.9375 C63.12126953 62.54650146 63.55503906 63.15550293 64.00195312 63.78295898 C65.00216368 65.18802638 66.00122327 66.59391302 67 68 C61.72261488 71.33379572 54.94027754 71.06986587 49.00488281 69.81005859 C43.27703829 67.49576389 40.16308896 61.06440837 37.18603516 55.96777344 C35.3038499 52.84500416 33.15121531 49.94215948 31 47 C28.6013414 49.53901285 26.20659872 52.08168768 23.8125 54.625 C23.13896484 55.33785156 22.46542969 56.05070312 21.77148438 56.78515625 C21.11083984 57.48769531 20.45019531 58.19023438 19.76953125 58.9140625 C19.11057861 59.60516113 18.45162598 60.29625977 17.77270508 61.00830078 C16.20977386 62.76431137 15.02269033 64.50540485 13.75 66.46875 C9.41850639 70.45569298 4.87192045 69.88888985 -0.8125 69.875 C-1.88693359 69.895625 -2.96136719 69.91625 -4.06835938 69.9375 C-6.71301554 69.98451611 -9.3550121 70.0044491 -12 70 C-12 67 -12 67 -10.27514648 64.95043945 C-9.48180908 64.17917725 -8.68847168 63.40791504 -7.87109375 62.61328125 C-6.56495117 61.3284082 -6.56495117 61.3284082 -5.23242188 60.01757812 C-4.31009766 59.12490234 -3.38777344 58.23222656 -2.4375 57.3125 C3.62738614 51.3960704 9.53288703 45.47609037 15 39 C16.14533492 37.6662385 17.29114344 36.33288351 18.4375 35 C19.283125 34.01 20.12875 33.02 21 32 C19.00286842 29.06054054 17.00222461 26.1234926 15 23.1875 C14.11501831 21.88921265 14.11501831 21.88921265 13.2121582 20.56469727 C9.35563465 14.92669912 5.41488009 9.38131575 1.29296875 3.93359375 C0 2 0 2 0 0 Z " fill="#5986A1" transform="translate(303,56)"/>
<path d="M0 0 C0.95970703 -0.02900391 1.91941406 -0.05800781 2.90820312 -0.08789062 C10.31218331 -0.15359147 15.59309536 1.20235101 21.24609375 6.09375 C21.92865234 6.94453125 21.92865234 6.94453125 22.625 7.8125 C23.09808594 8.3796875 23.57117188 8.946875 24.05859375 9.53125 C26.31283198 13.08811031 26.31349292 16.67290975 26.31689453 20.79956055 C26.32004669 21.89717209 26.32319885 22.99478363 26.32644653 24.12565613 C26.3244223 25.30493179 26.32239807 26.48420746 26.3203125 27.69921875 C26.32126923 28.91196976 26.32222595 30.12472076 26.32321167 31.3742218 C26.32389191 33.93543551 26.32204846 36.49665094 26.31787109 39.05786133 C26.31250682 42.99499338 26.3178285 46.93201206 26.32421875 50.86914062 C26.32355821 53.35416692 26.32227756 55.83919314 26.3203125 58.32421875 C26.32233673 59.50956711 26.32436096 60.69491547 26.32644653 61.91618347 C26.32171829 63.54841606 26.32171829 63.54841606 26.31689453 65.21362305 C26.31609894 66.17640671 26.31530334 67.13919037 26.31448364 68.13114929 C26.1875 70.3125 26.1875 70.3125 25.1875 71.3125 C23.33462498 71.38476502 21.47916122 71.3963122 19.625 71.375 C18.61308594 71.36597656 17.60117188 71.35695313 16.55859375 71.34765625 C15.77613281 71.33605469 14.99367187 71.32445313 14.1875 71.3125 C13.5275 69.3325 12.8675 67.3525 12.1875 65.3125 C11.5584375 65.72242187 10.929375 66.13234375 10.28125 66.5546875 C1.92886086 71.81266741 -4.20787597 74.06900527 -14.125 72.92578125 C-19.59559129 71.67740504 -24.12220507 68.4962646 -27.8125 64.3125 C-29.8955733 58.06328011 -29.83041168 49.29337754 -28.19921875 42.9140625 C-25.07366006 36.82817288 -18.69062086 32.74468597 -12.4375 30.4375 C-4.81645085 28.38844433 3.36909395 29.08254688 11.1875 29.3125 C10.89264287 21.25283128 10.89264287 21.25283128 7.1875 14.3125 C1.43841709 10.6315261 -6.56912119 11.6180637 -12.96875 12.98828125 C-14.81304759 13.51132801 -16.64939283 14.06403211 -18.47265625 14.65625 C-20.8125 15.3125 -20.8125 15.3125 -24.8125 15.3125 C-25.1425 12.0125 -25.4725 8.7125 -25.8125 5.3125 C-24.25229133 4.66115075 -22.68921421 4.01667036 -21.125 3.375 C-20.25488281 3.01535156 -19.38476562 2.65570313 -18.48828125 2.28515625 C-12.39073313 0.06867526 -6.41565992 0.06385859 0 0 Z M-12.8125 44.3125 C-14.51182147 47.24769164 -14.82895196 48.91765287 -14.6875 52.3125 C-13.61366331 55.99422578 -12.71683605 57.77120595 -9.8125 60.3125 C-5.66176621 61.84573024 -2.22835257 61.82753909 1.92578125 60.31640625 C5.41303591 58.61567569 8.43280039 57.06719961 11.1875 54.3125 C11.35913731 51.74957683 11.42014558 49.30904143 11.375 46.75 C11.37435547 46.05197266 11.37371094 45.35394531 11.37304688 44.63476562 C11.6423138 41.18399957 11.6423138 41.18399957 10.1875 38.3125 C2.11059765 37.53726161 -6.99537614 38.14282318 -12.8125 44.3125 Z " fill="#E87912" transform="translate(204.8125,54.6875)"/>
<path d="M0 0 C1.01191406 -0.02900391 2.02382812 -0.05800781 3.06640625 -0.08789062 C9.49921612 -0.14212313 14.41421468 0.54357227 19.75 4.3125 C24.1754448 8.97086295 26.00493255 12.6780145 25.97705078 19.09082031 C25.97689972 20.2517218 25.97674866 21.41262329 25.97659302 22.60870361 C25.96627045 23.85673767 25.95594788 25.10477173 25.9453125 26.390625 C25.9424826 27.67233582 25.93965271 28.95404663 25.93673706 30.27459717 C25.92911788 33.67439639 25.90948434 37.07402346 25.8873291 40.47375488 C25.86683358 43.94602124 25.85772744 47.41831553 25.84765625 50.890625 C25.82623664 57.69799431 25.7910686 64.50522116 25.75 71.3125 C21.79 71.3125 17.83 71.3125 13.75 71.3125 C13.09 69.3325 12.43 67.3525 11.75 65.3125 C11.193125 65.72242187 10.63625 66.13234375 10.0625 66.5546875 C2.09721766 72.17882267 -3.81711501 74.01444606 -13.56640625 72.8515625 C-18.9662283 71.76688209 -22.84984722 69.74855413 -26.6875 65.8125 C-30.34603049 59.95885122 -29.79428632 52.99601586 -29.25 46.3125 C-27.99253724 41.05324696 -25.4093212 38.11572849 -21.0625 35 C-19.48138482 34.06408182 -17.87711712 33.16593888 -16.25 32.3125 C-15.60546875 31.97089844 -14.9609375 31.62929687 -14.296875 31.27734375 C-6.53525489 27.99240611 2.50069299 29.07222892 10.75 29.3125 C10.49462428 27.2064014 10.22014626 25.10261246 9.9375 23 C9.78667969 21.82824219 9.63585937 20.65648437 9.48046875 19.44921875 C8.74216579 16.27885898 8.35519714 15.16073913 5.75 13.3125 C-2.037787 10.716571 -10.24013275 12.20218553 -17.875 14.65625 C-20.25 15.3125 -20.25 15.3125 -24.25 15.3125 C-24.58 12.0125 -24.91 8.7125 -25.25 5.3125 C-23.66800369 4.66339846 -22.08434276 4.01835306 -20.5 3.375 C-19.61828125 3.01535156 -18.7365625 2.65570313 -17.828125 2.28515625 C-11.88060117 0.04131771 -6.3072079 0.05935265 0 0 Z M-11.25 42.8125 C-14.45268165 46.81585207 -14.59815305 49.17724251 -14.25 54.3125 C-12.94498246 57.40333103 -11.93761533 58.86757243 -9.125 60.6875 C-3.46923477 61.91701418 1.98118778 61.01497473 7.3125 58.8125 C9.43700965 57.60504333 9.43700965 57.60504333 10.75 55.3125 C11.74960189 49.71329111 11.19716627 43.94555281 10.75 38.3125 C-1.03410447 37.79344166 -1.03410447 37.79344166 -11.25 42.8125 Z " fill="#E87912" transform="translate(76.25,54.6875)"/>
<path d="M0 0 C1.1653125 -0.00257812 2.330625 -0.00515625 3.53125 -0.0078125 C6.5 0.125 6.5 0.125 8.5 1.125 C-0.56666667 58.19166667 -0.56666667 58.19166667 -13.5 71.125 C-15.37939453 71.35205078 -15.37939453 71.35205078 -17.6328125 71.3203125 C-18.43847656 71.31386719 -19.24414062 71.30742188 -20.07421875 71.30078125 C-20.91597656 71.28402344 -21.75773437 71.26726562 -22.625 71.25 C-23.47449219 71.24097656 -24.32398438 71.23195313 -25.19921875 71.22265625 C-27.29959884 71.19905647 -29.39983444 71.16318483 -31.5 71.125 C-33.99746667 66.10349787 -35.87296442 61.09624426 -37.36328125 55.6875 C-39.42656198 48.33291805 -41.6585988 41.04023573 -43.9375 33.75 C-44.52519165 31.86124146 -44.52519165 31.86124146 -45.12475586 29.93432617 C-46.80423451 24.54004784 -48.48960899 19.14776537 -50.1953125 13.76171875 C-50.43193604 13.0126123 -50.66855957 12.26350586 -50.91235352 11.49169922 C-51.51301666 9.59384729 -52.11765845 7.69725582 -52.72265625 5.80078125 C-53.5 3.125 -53.5 3.125 -53.5 1.125 C-47.89 1.125 -42.28 1.125 -36.5 1.125 C-34.29587866 7.69046782 -32.15805937 14.27413209 -30.0625 20.875 C-29.75610596 21.84002441 -29.44971191 22.80504883 -29.1340332 23.79931641 C-22.76337194 43.89360529 -22.76337194 43.89360529 -20.5 53.125 C-20.25092896 52.16630005 -20.25092896 52.16630005 -19.99682617 51.18823242 C-19.22772632 48.22947889 -18.4576174 45.27098884 -17.6875 42.3125 C-17.42646484 41.30767578 -17.16542969 40.30285156 -16.89648438 39.26757812 C-16.63544922 38.26533203 -16.37441406 37.26308594 -16.10546875 36.23046875 C-15.84096924 35.21436523 -15.57646973 34.19826172 -15.30395508 33.15136719 C-14.53229036 30.24655219 -13.71730423 27.35663342 -12.8984375 24.46484375 C-11.3227273 18.72272631 -10.42528351 12.96186924 -9.59570312 7.07421875 C-9.29277944 5.08067628 -8.90399192 3.10054166 -8.5 1.125 C-5.64804778 -0.30097611 -3.17538825 -0.0070252 0 0 Z " fill="#E97B15" transform="translate(162.5,54.875)"/>
<path d="M0 0 C5.28 0 10.56 0 16 0 C16.04543394 10.80628903 16.08202057 21.61251318 16.10362434 32.41887665 C16.11400025 37.43830453 16.12804434 42.45766289 16.15087891 47.47705078 C16.17283065 52.33353851 16.184615 57.18995996 16.18975449 62.04649353 C16.19341061 63.8865615 16.20054819 65.72662641 16.21146011 67.56666565 C16.39521034 99.87761607 16.39521034 99.87761607 8.39453125 110.0390625 C4.21436002 114.22955514 -0.35404711 117.99626071 -6 120 C-9.54502059 119.66269394 -10.14250666 118.85749334 -12.8125 116.1875 C-15 113 -15 113 -14.87890625 110.984375 C-13.74898449 108.43326276 -12.43922765 107.5926029 -10.125 106.0625 C-3.7029152 101.45236056 -2.29927426 96.54237532 -1 89 C-0.73174132 85.93308929 -0.68946387 82.88588102 -0.68115234 79.80834961 C-0.67110672 78.93896759 -0.6610611 78.06958557 -0.65071106 77.17385864 C-0.62010599 74.3333597 -0.60290762 71.492954 -0.5859375 68.65234375 C-0.56720757 66.66979686 -0.54763282 64.68725778 -0.5272522 62.70472717 C-0.4761178 57.51153186 -0.43639245 52.31831076 -0.39910889 47.125 C-0.35895155 41.8156913 -0.30791293 36.50648816 -0.2578125 31.19726562 C-0.16127475 20.79825144 -0.07679963 10.39917739 0 0 Z " fill="#E97A13" transform="translate(22,31)"/>
<path d="M0 0 C0.94786377 0.02094727 1.89572754 0.04189453 2.87231445 0.06347656 C4.41435547 0.0828125 4.41435547 0.0828125 5.98754883 0.10253906 C7.0594043 0.13605469 8.13125977 0.16957031 9.2355957 0.20410156 C10.31905273 0.22214844 11.40250977 0.24019531 12.51879883 0.25878906 C15.19611717 0.30596648 17.8716648 0.37177907 20.5480957 0.45410156 C20.2180957 1.11410156 19.8880957 1.77410156 19.5480957 2.45410156 C18.2899707 2.26847656 17.0318457 2.08285156 15.7355957 1.89160156 C6.01144308 0.84097118 6.01144308 0.84097118 -2.96948242 4.02441406 C-8.04579648 8.28601105 -12.36967407 13.24657462 -16.4519043 18.45410156 C-16.4519043 15.45410156 -16.4519043 15.45410156 -14.15112305 12.89550781 C-13.15457624 11.92823207 -12.15030684 10.9688641 -11.1394043 10.01660156 C-7.29147066 6.45161894 -7.29147066 6.45161894 -4.1159668 2.31030273 C-2.4519043 0.45410156 -2.4519043 0.45410156 0 0 Z " fill="#7A9EB4" transform="translate(357.451904296875,55.5458984375)"/>
<path d="M0 0 C0.99 0.33 1.98 0.66 3 1 C-0.465 3.97 -0.465 3.97 -4 7 C-3.04065919 3.16263678 -2.76390737 2.40339772 0 0 Z " fill="#ED9A4C" transform="translate(183,90)"/>
</svg>
